<svg width="63" height="50" viewBox="0 0 63 50" fill="none" xmlns="http://www.w3.org/2000/svg">
<path d="M2.36403 41.6C2.04403 41.6 1.7587 41.5307 1.50803 41.392C1.2627 41.248 1.0707 41.0533 0.932031 40.808C0.793365 40.5573 0.724031 40.272 0.724031 39.952C0.724031 39.6373 0.793365 39.3547 0.932031 39.104C1.0707 38.8533 1.2627 38.6587 1.50803 38.52C1.7587 38.376 2.04403 38.304 2.36403 38.304C2.6787 38.304 2.9587 38.376 3.20403 38.52C3.4547 38.6587 3.64936 38.8533 3.78803 39.104C3.9267 39.3547 3.99603 39.6373 3.99603 39.952C3.99603 40.272 3.9267 40.5573 3.78803 40.808C3.64936 41.0533 3.4547 41.248 3.20403 41.392C2.9587 41.5307 2.6787 41.6 2.36403 41.6ZM2.36403 41.272C2.74803 41.272 3.05736 41.1493 3.29203 40.904C3.5267 40.6587 3.64403 40.3413 3.64403 39.952C3.64403 39.568 3.5267 39.2533 3.29203 39.008C3.05736 38.7627 2.74803 38.64 2.36403 38.64C1.9747 38.64 1.6627 38.7627 1.42803 39.008C1.19336 39.2533 1.07603 39.568 1.07603 39.952C1.07603 40.3413 1.19336 40.6587 1.42803 40.904C1.6627 41.1493 1.9747 41.272 2.36403 41.272ZM1.70003 40.792V39.08H2.50003C2.67603 39.08 2.81736 39.128 2.92403 39.224C3.0307 39.32 3.08403 39.4507 3.08403 39.616C3.08403 39.8773 2.9587 40.0453 2.70803 40.12L3.15603 40.792H2.66003L2.26803 40.144H2.12403V40.792H1.70003ZM2.12403 39.824H2.44403C2.5027 39.824 2.55336 39.8107 2.59603 39.784C2.6387 39.752 2.66003 39.7013 2.66003 39.632C2.66003 39.568 2.6387 39.5227 2.59603 39.496C2.55336 39.4693 2.5027 39.456 2.44403 39.456H2.12403V39.824ZM6.96253 44V38.4H9.07453C9.65586 38.4 10.0959 38.536 10.3945 38.808C10.6932 39.08 10.8425 39.4213 10.8425 39.832C10.8425 40.1893 10.7465 40.4747 10.5545 40.688C10.3625 40.896 10.1305 41.0373 9.85853 41.112C10.0719 41.1547 10.2612 41.24 10.4265 41.368C10.5972 41.496 10.7305 41.656 10.8265 41.848C10.9225 42.04 10.9705 42.248 10.9705 42.472C10.9705 42.76 10.8985 43.0213 10.7545 43.256C10.6159 43.4853 10.4105 43.6667 10.1385 43.8C9.86653 43.9333 9.5332 44 9.13853 44H6.96253ZM7.81053 40.8H8.97053C9.29586 40.8 9.54386 40.7253 9.71453 40.576C9.8852 40.4213 9.97053 40.2107 9.97053 39.944C9.97053 39.6827 9.8852 39.4747 9.71453 39.32C9.5492 39.1653 9.29586 39.088 8.95453 39.088H7.81053V40.8ZM7.81053 43.304H9.02653C9.36786 43.304 9.63186 43.224 9.81853 43.064C10.0105 42.904 10.1065 42.68 10.1065 42.392C10.1065 42.104 10.0079 41.8773 9.81053 41.712C9.6132 41.5413 9.34653 41.456 9.01053 41.456H7.81053V43.304ZM13.212 44.096C12.876 44.096 12.5987 44.04 12.38 43.928C12.1614 43.816 11.9987 43.6693 11.892 43.488C11.7854 43.3013 11.732 43.0987 11.732 42.88C11.732 42.496 11.8814 42.192 12.18 41.968C12.4787 41.744 12.9054 41.632 13.46 41.632H14.5V41.56C14.5 41.2507 14.4147 41.0187 14.244 40.864C14.0787 40.7093 13.8627 40.632 13.596 40.632C13.3614 40.632 13.156 40.6907 12.98 40.808C12.8094 40.92 12.7054 41.088 12.668 41.312H11.82C11.8467 41.024 11.9427 40.7787 12.108 40.576C12.2787 40.368 12.492 40.2107 12.748 40.104C13.0094 39.992 13.2947 39.936 13.604 39.936C14.1587 39.936 14.588 40.0827 14.892 40.376C15.196 40.664 15.348 41.0587 15.348 41.56V44H14.612L14.54 43.32C14.428 43.5387 14.2654 43.7227 14.052 43.872C13.8387 44.0213 13.5587 44.096 13.212 44.096ZM13.38 43.408C13.6094 43.408 13.8014 43.3547 13.956 43.248C14.116 43.136 14.2387 42.9893 14.324 42.808C14.4147 42.6267 14.4707 42.4267 14.492 42.208H13.548C13.212 42.208 12.972 42.2667 12.828 42.384C12.6894 42.5013 12.62 42.648 12.62 42.824C12.62 43.0053 12.6867 43.1493 12.82 43.256C12.9587 43.3573 13.1454 43.408 13.38 43.408ZM17.9227 44C17.5333 44 17.224 43.9067 16.9947 43.72C16.7653 43.528 16.6507 43.1893 16.6507 42.704V40.744H15.9707V40.032H16.6507L16.7547 39.024H17.4987V40.032H18.6187V40.744H17.4987V42.704C17.4987 42.9227 17.544 43.0747 17.6347 43.16C17.7307 43.24 17.8933 43.28 18.1227 43.28H18.5787V44H17.9227ZM20.837 44.096C20.501 44.096 20.2237 44.04 20.005 43.928C19.7864 43.816 19.6237 43.6693 19.517 43.488C19.4104 43.3013 19.357 43.0987 19.357 42.88C19.357 42.496 19.5064 42.192 19.805 41.968C20.1037 41.744 20.5304 41.632 21.085 41.632H22.125V41.56C22.125 41.2507 22.0397 41.0187 21.869 40.864C21.7037 40.7093 21.4877 40.632 21.221 40.632C20.9864 40.632 20.781 40.6907 20.605 40.808C20.4344 40.92 20.3304 41.088 20.293 41.312H19.445C19.4717 41.024 19.5677 40.7787 19.733 40.576C19.9037 40.368 20.117 40.2107 20.373 40.104C20.6344 39.992 20.9197 39.936 21.229 39.936C21.7837 39.936 22.213 40.0827 22.517 40.376C22.821 40.664 22.973 41.0587 22.973 41.56V44H22.237L22.165 43.32C22.053 43.5387 21.8904 43.7227 21.677 43.872C21.4637 44.0213 21.1837 44.096 20.837 44.096ZM21.005 43.408C21.2344 43.408 21.4264 43.3547 21.581 43.248C21.741 43.136 21.8637 42.9893 21.949 42.808C22.0397 42.6267 22.0957 42.4267 22.117 42.208H21.173C20.837 42.208 20.597 42.2667 20.453 42.384C20.3144 42.5013 20.245 42.648 20.245 42.824C20.245 43.0053 20.3117 43.1493 20.445 43.256C20.5837 43.3573 20.7704 43.408 21.005 43.408ZM25.5477 44C25.1583 44 24.849 43.9067 24.6197 43.72C24.3903 43.528 24.2757 43.1893 24.2757 42.704V40.744H23.5957V40.032H24.2757L24.3797 39.024H25.1237V40.032H26.2437V40.744H25.1237V42.704C25.1237 42.9227 25.169 43.0747 25.2597 43.16C25.3557 43.24 25.5183 43.28 25.7477 43.28H26.2037V44H25.5477ZM28.462 44.096C28.126 44.096 27.8487 44.04 27.63 43.928C27.4114 43.816 27.2487 43.6693 27.142 43.488C27.0354 43.3013 26.982 43.0987 26.982 42.88C26.982 42.496 27.1314 42.192 27.43 41.968C27.7287 41.744 28.1554 41.632 28.71 41.632H29.75V41.56C29.75 41.2507 29.6647 41.0187 29.494 40.864C29.3287 40.7093 29.1127 40.632 28.846 40.632C28.6114 40.632 28.406 40.6907 28.23 40.808C28.0594 40.92 27.9554 41.088 27.918 41.312H27.07C27.0967 41.024 27.1927 40.7787 27.358 40.576C27.5287 40.368 27.742 40.2107 27.998 40.104C28.2594 39.992 28.5447 39.936 28.854 39.936C29.4087 39.936 29.838 40.0827 30.142 40.376C30.446 40.664 30.598 41.0587 30.598 41.56V44H29.862L29.79 43.32C29.678 43.5387 29.5154 43.7227 29.302 43.872C29.0887 44.0213 28.8087 44.096 28.462 44.096ZM28.63 43.408C28.8594 43.408 29.0514 43.3547 29.206 43.248C29.366 43.136 29.4887 42.9893 29.574 42.808C29.6647 42.6267 29.7207 42.4267 29.742 42.208H28.798C28.462 42.208 28.222 42.2667 28.078 42.384C27.9394 42.5013 27.87 42.648 27.87 42.824C27.87 43.0053 27.9367 43.1493 28.07 43.256C28.2087 43.3573 28.3954 43.408 28.63 43.408ZM33.8188 44.096C33.5094 44.096 33.2348 44.0347 32.9948 43.912C32.7601 43.7893 32.5734 43.616 32.4348 43.392L32.3468 44H31.5868V38.24H32.4348V40.648C32.5628 40.4613 32.7388 40.296 32.9628 40.152C33.1868 40.008 33.4748 39.936 33.8268 39.936C34.2108 39.936 34.5494 40.0267 34.8428 40.208C35.1361 40.3893 35.3654 40.6373 35.5308 40.952C35.7014 41.2667 35.7868 41.624 35.7868 42.024C35.7868 42.424 35.7014 42.7813 35.5308 43.096C35.3654 43.4053 35.1361 43.6507 34.8428 43.832C34.5494 44.008 34.2081 44.096 33.8188 44.096ZM33.6748 43.36C34.0374 43.36 34.3361 43.2373 34.5708 42.992C34.8054 42.7413 34.9228 42.416 34.9228 42.016C34.9228 41.7547 34.8694 41.5227 34.7628 41.32C34.6561 41.1173 34.5094 40.96 34.3228 40.848C34.1361 40.7307 33.9201 40.672 33.6748 40.672C33.3121 40.672 33.0134 40.7973 32.7788 41.048C32.5494 41.2987 32.4348 41.6213 32.4348 42.016C32.4348 42.416 32.5494 42.7413 32.7788 42.992C33.0134 43.2373 33.3121 43.36 33.6748 43.36ZM37.184 39.28C37.024 39.28 36.8906 39.232 36.784 39.136C36.6826 39.0347 36.632 38.9093 36.632 38.76C36.632 38.6107 36.6826 38.488 36.784 38.392C36.8906 38.2907 37.024 38.24 37.184 38.24C37.344 38.24 37.4746 38.2907 37.576 38.392C37.6826 38.488 37.736 38.6107 37.736 38.76C37.736 38.9093 37.6826 39.0347 37.576 39.136C37.4746 39.232 37.344 39.28 37.184 39.28ZM36.76 44V40.032H37.608V44H36.76ZM40.3914 44C40.0021 44 39.6927 43.9067 39.4634 43.72C39.2341 43.528 39.1194 43.1893 39.1194 42.704V40.744H38.4394V40.032H39.1194L39.2234 39.024H39.9674V40.032H41.0874V40.744H39.9674V42.704C39.9674 42.9227 40.0127 43.0747 40.1034 43.16C40.1994 43.24 40.3621 43.28 40.5914 43.28H41.0474V44H40.3914ZM43.8974 44V43.392C44.2601 43.104 44.6067 42.8133 44.9374 42.52C45.2681 42.2267 45.5614 41.9387 45.8174 41.656C46.0787 41.368 46.2841 41.088 46.4334 40.816C46.5827 40.5387 46.6574 40.272 46.6574 40.016C46.6574 39.8453 46.6281 39.6853 46.5694 39.536C46.5107 39.3813 46.4147 39.2587 46.2814 39.168C46.1481 39.072 45.9694 39.024 45.7454 39.024C45.4094 39.024 45.1561 39.1307 44.9854 39.344C44.8201 39.5573 44.7401 39.8133 44.7454 40.112H43.9214C43.9267 39.7173 44.0094 39.3867 44.1694 39.12C44.3347 38.8533 44.5534 38.6507 44.8254 38.512C45.1027 38.3733 45.4147 38.304 45.7614 38.304C46.2894 38.304 46.7107 38.4533 47.0254 38.752C47.3454 39.0453 47.5054 39.456 47.5054 39.984C47.5054 40.2987 47.4281 40.6107 47.2734 40.92C47.1241 41.2293 46.9267 41.528 46.6814 41.816C46.4414 42.0987 46.1827 42.3653 45.9054 42.616C45.6281 42.8667 45.3641 43.0933 45.1134 43.296H47.6734V44H43.8974ZM50.765 44.096C50.2584 44.096 49.821 43.976 49.453 43.736C49.0904 43.4907 48.8104 43.152 48.613 42.72C48.421 42.2827 48.325 41.776 48.325 41.2C48.325 40.624 48.421 40.12 48.613 39.688C48.8104 39.2507 49.0904 38.912 49.453 38.672C49.821 38.4267 50.2584 38.304 50.765 38.304C51.2717 38.304 51.7064 38.4267 52.069 38.672C52.4317 38.912 52.709 39.2507 52.901 39.688C53.0984 40.12 53.197 40.624 53.197 41.2C53.197 41.776 53.0984 42.2827 52.901 42.72C52.709 43.152 52.4317 43.4907 52.069 43.736C51.7064 43.976 51.2717 44.096 50.765 44.096ZM50.765 43.336C51.069 43.336 51.3384 43.2507 51.573 43.08C51.813 42.9093 51.9997 42.664 52.133 42.344C52.2664 42.024 52.333 41.6427 52.333 41.2C52.333 40.7573 52.2664 40.376 52.133 40.056C51.9997 39.736 51.813 39.4907 51.573 39.32C51.3384 39.1493 51.069 39.064 50.765 39.064C50.4557 39.064 50.1837 39.1493 49.949 39.32C49.7144 39.4907 49.5304 39.736 49.397 40.056C49.2637 40.376 49.197 40.7573 49.197 41.2C49.197 41.6427 49.2637 42.024 49.397 42.344C49.5304 42.664 49.7144 42.9093 49.949 43.08C50.1837 43.2507 50.4557 43.336 50.765 43.336ZM53.9677 44V43.392C54.3304 43.104 54.6771 42.8133 55.0077 42.52C55.3384 42.2267 55.6317 41.9387 55.8877 41.656C56.1491 41.368 56.3544 41.088 56.5037 40.816C56.6531 40.5387 56.7277 40.272 56.7277 40.016C56.7277 39.8453 56.6984 39.6853 56.6397 39.536C56.5811 39.3813 56.4851 39.2587 56.3517 39.168C56.2184 39.072 56.0397 39.024 55.8157 39.024C55.4797 39.024 55.2264 39.1307 55.0557 39.344C54.8904 39.5573 54.8104 39.8133 54.8157 40.112H53.9917C53.9971 39.7173 54.0797 39.3867 54.2397 39.12C54.4051 38.8533 54.6237 38.6507 54.8957 38.512C55.1731 38.3733 55.4851 38.304 55.8317 38.304C56.3597 38.304 56.7811 38.4533 57.0957 38.752C57.4157 39.0453 57.5757 39.456 57.5757 39.984C57.5757 40.2987 57.4984 40.6107 57.3437 40.92C57.1944 41.2293 56.9971 41.528 56.7517 41.816C56.5117 42.0987 56.2531 42.3653 55.9757 42.616C55.6984 42.8667 55.4344 43.0933 55.1837 43.296H57.7437V44H53.9677ZM58.5458 44V43.392C58.9085 43.104 59.2552 42.8133 59.5858 42.52C59.9165 42.2267 60.2098 41.9387 60.4658 41.656C60.7272 41.368 60.9325 41.088 61.0818 40.816C61.2312 40.5387 61.3058 40.272 61.3058 40.016C61.3058 39.8453 61.2765 39.6853 61.2178 39.536C61.1592 39.3813 61.0632 39.2587 60.9298 39.168C60.7965 39.072 60.6178 39.024 60.3938 39.024C60.0578 39.024 59.8045 39.1307 59.6338 39.344C59.4685 39.5573 59.3885 39.8133 59.3938 40.112H58.5698C58.5752 39.7173 58.6578 39.3867 58.8178 39.12C58.9832 38.8533 59.2018 38.6507 59.4738 38.512C59.7512 38.3733 60.0632 38.304 60.4098 38.304C60.9378 38.304 61.3592 38.4533 61.6738 38.752C61.9938 39.0453 62.1538 39.456 62.1538 39.984C62.1538 40.2987 62.0765 40.6107 61.9218 40.92C61.7725 41.2293 61.5752 41.528 61.3298 41.816C61.0898 42.0987 60.8312 42.3653 60.5538 42.616C60.2765 42.8667 60.0125 43.0933 59.7618 43.296H62.3218V44H58.5458Z" fill="#FFE9D5"/>
<path d="M27.8906 20.2838C21.4673 22.281 11.0927 20.2399 11.0006 11.3449C10.9084 2.44983 21.9806 7.74852 21.9806 7.74852L27.8906 20.2838Z" fill="#FFC250"/>
<path d="M14.1236 6.35426C18.6066 5.58608 22.0113 11.5265 25.7783 17.7232C29.5452 23.92 39.3542 26.3762 45.6218 21.165C51.8893 15.9539 54.542 6.82713 46.8464 1.38317C39.1509 -4.06079 34.3471 8.29872 27.7221 8.63845C21.0972 8.97819 21.0489 4.05367 14.1236 6.35426Z" fill="#FFD064"/>
<circle cx="46.1972" cy="11.6219" r="1.96745" fill="#FFE19D"/>
<circle cx="42.4262" cy="13.0974" r="1.47559" fill="#FFE19D"/>
<circle cx="45.0495" cy="15.0648" r="1.14768" fill="#FFE19D"/>
</svg>
